<svg xmlns="http://www.w3.org/2000/svg" width="350" height="350" viewBox="81 113 350 350" role="img" aria-label="Stopwatch app icon (Polished steel, transparent)"><defs><linearGradient id="steel-bg" x1="0" y1="0" x2="0" y2="1"><stop offset="0" stop-color="#2b4a6f"/><stop offset="1" stop-color="#14233b"/></linearGradient><linearGradient id="steel-ring" x1="0.15" y1="0.05" x2="0.85" y2="0.95"><stop offset="0" stop-color="#f2f4f7"/><stop offset="0.55" stop-color="#aeb4bd"/><stop offset="1" stop-color="#6f757e"/></linearGradient><radialGradient id="steel-dial" cx="0.42" cy="0.36" r="0.75"><stop offset="0" stop-color="#ffffff"/><stop offset="1" stop-color="#e9ebef"/></radialGradient><radialGradient id="steel-sh" cx="0.5" cy="0.5" r="0.5"><stop offset="0.55" stop-color="#000000" stop-opacity="0.30"/><stop offset="1" stop-color="#000000" stop-opacity="0"/></radialGradient></defs><rect x="245" y="140" width="22" height="30" fill="url(#steel-ring)" stroke="#52575e" stroke-width="2"/><rect x="234" y="118" width="44" height="24" rx="9" fill="url(#steel-ring)" stroke="#52575e" stroke-width="2.5"/><circle cx="256" cy="306" r="150" fill="url(#steel-ring)" stroke="#52575e" stroke-width="3"/><circle cx="256" cy="306" r="122" fill="#cfd3d9"/><circle cx="256" cy="306" r="116" fill="url(#steel-dial)"/><line x1="256" y1="198" x2="256" y2="218" stroke="#1b1e22" stroke-width="5" stroke-linecap="round"/><line x1="267.289" y1="198.592" x2="266.244" y2="208.537" stroke="#7c828a" stroke-width="2.5" stroke-linecap="round"/><line x1="278.454" y1="200.36" x2="276.375" y2="210.142" stroke="#7c828a" stroke-width="2.5" stroke-linecap="round"/><line x1="289.374" y1="203.286" x2="286.284" y2="212.796" stroke="#7c828a" stroke-width="2.5" stroke-linecap="round"/><line x1="299.928" y1="207.337" x2="295.86" y2="216.473" stroke="#7c828a" stroke-width="2.5" stroke-linecap="round"/><line x1="310" y1="212.469" x2="300" y2="229.79" stroke="#1b1e22" stroke-width="5" stroke-linecap="round"/><line x1="319.481" y1="218.626" x2="313.603" y2="226.716" stroke="#7c828a" stroke-width="2.5" stroke-linecap="round"/><line x1="328.266" y1="225.74" x2="321.575" y2="233.172" stroke="#7c828a" stroke-width="2.5" stroke-linecap="round"/><line x1="336.26" y1="233.734" x2="328.828" y2="240.425" stroke="#7c828a" stroke-width="2.5" stroke-linecap="round"/><line x1="343.374" y1="242.519" x2="335.284" y2="248.397" stroke="#7c828a" stroke-width="2.5" stroke-linecap="round"/><line x1="349.531" y1="252" x2="332.21" y2="262" stroke="#1b1e22" stroke-width="5" stroke-linecap="round"/><line x1="354.663" y1="262.072" x2="345.527" y2="266.14" stroke="#7c828a" stroke-width="2.5" stroke-linecap="round"/><line x1="358.714" y1="272.626" x2="349.204" y2="275.716" stroke="#7c828a" stroke-width="2.5" stroke-linecap="round"/><line x1="361.64" y1="283.546" x2="351.858" y2="285.625" stroke="#7c828a" stroke-width="2.5" stroke-linecap="round"/><line x1="363.408" y1="294.711" x2="353.463" y2="295.756" stroke="#7c828a" stroke-width="2.5" stroke-linecap="round"/><line x1="364" y1="306" x2="344" y2="306" stroke="#1b1e22" stroke-width="5" stroke-linecap="round"/><line x1="363.408" y1="317.289" x2="353.463" y2="316.244" stroke="#7c828a" stroke-width="2.5" stroke-linecap="round"/><line x1="361.64" y1="328.454" x2="351.858" y2="326.375" stroke="#7c828a" stroke-width="2.5" stroke-linecap="round"/><line x1="358.714" y1="339.374" x2="349.204" y2="336.284" stroke="#7c828a" stroke-width="2.5" stroke-linecap="round"/><line x1="354.663" y1="349.928" x2="345.527" y2="345.86" stroke="#7c828a" stroke-width="2.5" stroke-linecap="round"/><line x1="349.531" y1="360" x2="332.21" y2="350" stroke="#1b1e22" stroke-width="5" stroke-linecap="round"/><line x1="343.374" y1="369.481" x2="335.284" y2="363.603" stroke="#7c828a" stroke-width="2.5" stroke-linecap="round"/><line x1="336.26" y1="378.266" x2="328.828" y2="371.575" stroke="#7c828a" stroke-width="2.5" stroke-linecap="round"/><line x1="328.266" y1="386.26" x2="321.575" y2="378.828" stroke="#7c828a" stroke-width="2.5" stroke-linecap="round"/><line x1="319.481" y1="393.374" x2="313.603" y2="385.284" stroke="#7c828a" stroke-width="2.5" stroke-linecap="round"/><line x1="310" y1="399.531" x2="300" y2="382.21" stroke="#1b1e22" stroke-width="5" stroke-linecap="round"/><line x1="299.928" y1="404.663" x2="295.86" y2="395.527" stroke="#7c828a" stroke-width="2.5" stroke-linecap="round"/><line x1="289.374" y1="408.714" x2="286.284" y2="399.204" stroke="#7c828a" stroke-width="2.5" stroke-linecap="round"/><line x1="278.454" y1="411.64" x2="276.375" y2="401.858" stroke="#7c828a" stroke-width="2.5" stroke-linecap="round"/><line x1="267.289" y1="413.408" x2="266.244" y2="403.463" stroke="#7c828a" stroke-width="2.5" stroke-linecap="round"/><line x1="256" y1="414" x2="256" y2="394" stroke="#1b1e22" stroke-width="5" stroke-linecap="round"/><line x1="244.711" y1="413.408" x2="245.756" y2="403.463" stroke="#7c828a" stroke-width="2.5" stroke-linecap="round"/><line x1="233.546" y1="411.64" x2="235.625" y2="401.858" stroke="#7c828a" stroke-width="2.5" stroke-linecap="round"/><line x1="222.626" y1="408.714" x2="225.716" y2="399.204" stroke="#7c828a" stroke-width="2.5" stroke-linecap="round"/><line x1="212.072" y1="404.663" x2="216.14" y2="395.527" stroke="#7c828a" stroke-width="2.5" stroke-linecap="round"/><line x1="202" y1="399.531" x2="212" y2="382.21" stroke="#1b1e22" stroke-width="5" stroke-linecap="round"/><line x1="192.519" y1="393.374" x2="198.397" y2="385.284" stroke="#7c828a" stroke-width="2.5" stroke-linecap="round"/><line x1="183.734" y1="386.26" x2="190.425" y2="378.828" stroke="#7c828a" stroke-width="2.5" stroke-linecap="round"/><line x1="175.74" y1="378.266" x2="183.172" y2="371.575" stroke="#7c828a" stroke-width="2.5" stroke-linecap="round"/><line x1="168.626" y1="369.481" x2="176.716" y2="363.603" stroke="#7c828a" stroke-width="2.5" stroke-linecap="round"/><line x1="162.469" y1="360" x2="179.79" y2="350" stroke="#1b1e22" stroke-width="5" stroke-linecap="round"/><line x1="157.337" y1="349.928" x2="166.473" y2="345.86" stroke="#7c828a" stroke-width="2.5" stroke-linecap="round"/><line x1="153.286" y1="339.374" x2="162.796" y2="336.284" stroke="#7c828a" stroke-width="2.5" stroke-linecap="round"/><line x1="150.36" y1="328.454" x2="160.142" y2="326.375" stroke="#7c828a" stroke-width="2.5" stroke-linecap="round"/><line x1="148.592" y1="317.289" x2="158.537" y2="316.244" stroke="#7c828a" stroke-width="2.5" stroke-linecap="round"/><line x1="148" y1="306" x2="168" y2="306" stroke="#1b1e22" stroke-width="5" stroke-linecap="round"/><line x1="148.592" y1="294.711" x2="158.537" y2="295.756" stroke="#7c828a" stroke-width="2.5" stroke-linecap="round"/><line x1="150.36" y1="283.546" x2="160.142" y2="285.625" stroke="#7c828a" stroke-width="2.5" stroke-linecap="round"/><line x1="153.286" y1="272.626" x2="162.796" y2="275.716" stroke="#7c828a" stroke-width="2.5" stroke-linecap="round"/><line x1="157.337" y1="262.072" x2="166.473" y2="266.14" stroke="#7c828a" stroke-width="2.5" stroke-linecap="round"/><line x1="162.469" y1="252" x2="179.79" y2="262" stroke="#1b1e22" stroke-width="5" stroke-linecap="round"/><line x1="168.626" y1="242.519" x2="176.716" y2="248.397" stroke="#7c828a" stroke-width="2.5" stroke-linecap="round"/><line x1="175.74" y1="233.734" x2="183.172" y2="240.425" stroke="#7c828a" stroke-width="2.5" stroke-linecap="round"/><line x1="183.734" y1="225.74" x2="190.425" y2="233.172" stroke="#7c828a" stroke-width="2.5" stroke-linecap="round"/><line x1="192.519" y1="218.626" x2="198.397" y2="226.716" stroke="#7c828a" stroke-width="2.5" stroke-linecap="round"/><line x1="202" y1="212.469" x2="212" y2="229.79" stroke="#1b1e22" stroke-width="5" stroke-linecap="round"/><line x1="212.072" y1="207.337" x2="216.14" y2="216.473" stroke="#7c828a" stroke-width="2.5" stroke-linecap="round"/><line x1="222.626" y1="203.286" x2="225.716" y2="212.796" stroke="#7c828a" stroke-width="2.5" stroke-linecap="round"/><line x1="233.546" y1="200.36" x2="235.625" y2="210.142" stroke="#7c828a" stroke-width="2.5" stroke-linecap="round"/><line x1="244.711" y1="198.592" x2="245.756" y2="208.537" stroke="#7c828a" stroke-width="2.5" stroke-linecap="round"/><line x1="256" y1="306" x2="223" y2="248.842" stroke="#1b1e22" stroke-width="11" stroke-linecap="round"/><line x1="245.739" y1="334.191" x2="289.518" y2="213.91" stroke="#e23b2e" stroke-width="6.5" stroke-linecap="round"/><circle cx="245.739" cy="334.191" r="7" fill="#e23b2e"/><circle cx="256" cy="306" r="12" fill="#1b1e22"/><circle cx="256" cy="306" r="4.5" fill="#eceef1"/></svg>
